<?xml version="1.0" standalone="no"?>
<!DOCTYPE svg PUBLIC "-//W3C//DTD SVG 1.1//EN" "http://www.w3.org/Graphics/SVG/1.1/DTD/svg11.dtd" >
<svg xmlns="http://www.w3.org/2000/svg" xmlns:xlink="http://www.w3.org/1999/xlink" version="1.1" viewBox="-1 -96 1056 1152">
  <g transform="matrix(1 0 0 -1 0 1056)">
   <path fill="currentColor"
d="M144.033 316.1c0 12.7002 5.09961 25 14.0996 34l369.9 369.9l369.9 -370c9 -9 14.0996 -21.2002 14.0996 -33.9004v-376.1c0 -19.9004 -16.0996 -36 -36 -36h-168c-19.9004 0 -36 16.0996 -36 36v384c0 6.59961 -5.40039 12 -12 12h-264
c-6.59961 0 -12 -5.40039 -12 -12v-384c0 -19.9004 -16.0996 -36 -36 -36h-168c-19.9004 0 -36 16.0996 -36 36v376.1zM21.333 549.3l472.7 472.8c18.7998 18.7002 49.2002 18.7002 67.9004 0l475.399 -475.399s42 -54 0 -96s-96 0 -96 0l-413.3 413.3l-410.7 -410.7
s-48 -48 -96 0s0 96 0 96zM768.434 1032.1c0.0996094 13.2002 10.7998 23.9004 24 23.9004h95.5996c13.2998 0 24 -10.7002 24 -24v-216l-144 144z" />
  </g>

</svg>
